# xmcd
#
# Track frame offsets: 
#        150
#        22317
#        46050
#        67100
#        89452
#        111187
#        133542
#        154305
#        176900
#
# Disc length: 2622 seconds
#
# Revision: 2
# Processed by: cddbd v1.5.2PL0 Copyright (c) Steve Scherf et al.
# Submitted via: ExactAudioCopy v0.99pb4
#
DISCID=800a3c09
DTITLE=Marc Anthony - Todo A Su Tiempo
DYEAR=1999
DGENRE=Salsa
TTITLE0=Se Me Sigue Olvidando
TTITLE1=Te Conozco Bien
TTITLE2=Hasta Ayer
TTITLE3=Nadie Como Ella
TTITLE4=Te Amare
TTITLE5=Llegaste A Mi
TTITLE6=Y Sigues Siendo Tu
TTITLE7=Por Amor Se Da Todo
TTITLE8=Vieja Mesa
EXTD=YEAR: 1999
EXTT0=
EXTT1=
EXTT2=
EXTT3=
EXTT4=
EXTT5=
EXTT6=
EXTT7=
EXTT8=
PLAYORDER=
